<?xml version="1.0" encoding="utf-8"?>
<?xml-stylesheet type="text/xsl" href="rss1.xsl"?>
<rss version="2.0" xmlns:atom="http://www.w3.org/2005/Atom" xmlns:content="http://purl.org/rss/1.0/modules/content/" xmlns:dc="http://purl.org/dc/elements/1.1/" xmlns:media="http://search.yahoo.com/mrss/">
<channel>
 <title>Getty</title>
 <link>http://www.gettyimg.com/</link>
 <atom:link href="http://www.gettyimg.com/" rel="self" type="application/rss+xml" />

 
                <item>
                <title><![CDATA[【Apple Music】WEB-RiP - Coolio - Gangsta's Paradise (feat. L.V.) (1080p)]]></title>
                <link><![CDATA[https://sharemania.us/threads/coolio-gangstas-paradise-feat-l-v-1080p.248504/]]></link>
                <description><![CDATA[<article>
<blockquote class="messageText SelectQuoteContainer ugc baseHtml">
<img src="https://i.postimg.cc/XJC25CmR/Coolio-Gangsta-s-Paradise-feat-L-V-mp4.jpg" class="bbCodeImage LbImage" alt="[​IMG]" data-url="https://i.postimg.cc/XJC25CmR/Coolio-Gangsta-s-Paradise-feat-L-V-mp4.jpg" style=""><br>
<br>
<div class="bbCodeBlock bbCodeCode">
<div class="type">Code:</div>
<pre>General
Complete name                  : G:\Новая папка\Coolio - Gangsta's Paradise (feat. L.V.).mp4
Format                         : MPEG-4
Format profile                 : Base Media
Codec ID                       : isom (isom/iso2/avc1/mp41)
File size                      : 212 MiB
Duration                       : 4 min 14 s
Overall bit rate               : 6 994 kb/s
Frame rate                     : 29.970 FPS
Movie name                     : Gangsta's Paradise (feat. L.V.)
Performer                      : Coolio
Genre                          : Hip-Hop/Rap
ContentType                    : Music Video
Recorded date                  : 2022-08-08 07:00:00 UTC
Writing application            : Lavf56.30.100
Copyright                      : ℗ 1995 Tommy Boy Music, LLC

Video
ID                             : 1
Format                         : AVC
Format/Info                    : Advanced Video Codec
Format profile                 : High@L4
Format settings                : CABAC / 4 Ref Frames
Format settings, CABAC         : Yes
Format settings, Reference fra : 4 frames
Format settings, Slice count   : 8 slices per frame
Codec ID                       : avc1
Codec ID/Info                  : Advanced Video Coding
Duration                       : 4 min 14 s
Bit rate                       : 6 713 kb/s
Width                          : 1 920 pixels
Height                         : 1 080 pixels
Display aspect ratio           : 16:9
Frame rate mode                : Constant
Frame rate                     : 29.970 (30000/1001) FPS
Color space                    : YUV
Chroma subsampling             : 4:2:0
Bit depth                      : 8 bits
Scan type                      : Progressive
Bits/(Pixel*Frame)             : 0.108
Stream size                    : 204 MiB (96%)
Color range                    : Limited
Color primaries                : BT.709
Transfer characteristics       : BT.709
Matrix coefficients            : BT.709
Codec configuration box        : avcC

Audio
ID                             : 2
Format                         : AAC LC
Format/Info                    : Advanced Audio Codec Low Complexity
Codec ID                       : mp4a-40-2
Duration                       : 4 min 14 s
Duration_LastFrame             : -7 ms
Bit rate mode                  : Constant
Bit rate                       : 273 kb/s
Channel(s)                     : 2 channels
Channel layout                 : L R
Sampling rate                  : 48.0 kHz
Frame rate                     : 46.875 FPS (1024 SPF)
Compression mode               : Lossy
Stream size                    : 8.28 MiB (4%)
Default                        : Yes
Alternate group                : 1

</pre>
</div>
<div class="bbCodeBlock bbCodeVfcHH HiddenContent">
<div class="attribution type">Hidden Content:</div>
<blockquote>You must either reply or click 'Like' to see the hidden information contained here.</blockquote>
</div>
<div class="messageTextEndMarker">&nbsp;</div>
</blockquote>
</article>]]></description>
                <author><![CDATA[vitalya3]]></author>
                </item>

                
                <item>
                <title><![CDATA[【HD Live Performances】WEB-RiP - Blondshell - Glastonbury Festival, UK, 30-06-2024 [1080p] by mirrorball]]></title>
                <link><![CDATA[https://sharemania.us/threads/blondshell-glastonbury-festival-uk-30-06-2024-1080p-by-mirrorball.248507/]]></link>
                <description><![CDATA[<article>
<blockquote class="messageText SelectQuoteContainer ugc baseHtml">
I captured the live stream from BBC iPlayer with the program Devine. Audio track 1 has a higher volume (I edited it with Audacity), audio track 2 is the original (too quiet).<br>
<br>
<img src="https://i.imgur.com/XHbsgpx.jpeg" class="bbCodeImage LbImage" alt="[​IMG]" data-url="https://i.imgur.com/XHbsgpx.jpeg" style=""><br>
<br>
MediaInfo:<br>
<div class="ToggleTriggerAnchor bbCodeSpoilerContainer">
<button type="button" class="button bbCodeSpoilerButton ToggleTrigger Tooltip JsOnly" data-target="> .SpoilerTarget"><span>Spoiler</span></button>
<div class="SpoilerTarget bbCodeSpoilerText">General<br>
Unique ID : 312811180967907028238728002301987704951 (0xEB553DF61B0553FBE0443FC3491CD077)<br>
Complete name : E:\Concerts\Blondshell - Glastonbury Festival, UK, 30-06-2024\Blondshell - Glastonbury Festival, UK, 30-06-2024.mkv<br>
Format : Matroska<br>
Format version : Version 4<br>
File size : 3.45 GiB<br>
Duration : 54 min 51 s<br>
Overall bit rate mode : Variable<br>
Overall bit rate : 9 011 kb/s<br>
Frame rate : 50.000 FPS<br>
Encoded date : 2024-07-02 15:32:19 UTC<br>
Writing application : mkvmerge v84.0 ('Sleeper') 64-bit<br>
Writing library : libebml v1.4.5 + libmatroska v1.7.1 / Lavf58.76.100<br>
<br>
Video<br>
ID : 1<br>
Format : AVC<br>
Format/Info : Advanced Video Codec<br>
Format profile : High@L4.2<br>
Format settings : CABAC / 4 Ref Frames<br>
Format settings, CABAC : Yes<br>
Format settings, Reference frames : 4 frames<br>
Codec ID : V_MPEG4/ISO/AVC<br>
Duration : 54 min 51 s<br>
Bit rate mode : Variable<br>
Bit rate : 8 654 kb/s<br>
Maximum bit rate : 12.0 Mb/s<br>
Width : 1 920 pixels<br>
Height : 1 080 pixels<br>
Display aspect ratio : 16:9<br>
Frame rate mode : Variable<br>
Frame rate : 50.000 FPS<br>
Color space : YUV<br>
Chroma subsampling : 4:2:0<br>
Bit depth : 8 bits<br>
Scan type : Progressive<br>
Bits/(Pixel*Frame) : 0.083<br>
Stream size : 3.32 GiB (96%)<br>
Default : Yes<br>
Forced : No<br>
Color range : Limited<br>
Color primaries : BT.709<br>
Transfer characteristics : BT.709<br>
Matrix coefficients : BT.709<br>
<br>
Audio #1<br>
ID : 2<br>
Format : AAC LC<br>
Format/Info : Advanced Audio Codec Low Complexity<br>
Codec ID : A_AAC-2<br>
Duration : 54 min 50 s<br>
Bit rate : 224 kb/s<br>
Channel(s) : 2 channels<br>
Channel layout : L R<br>
Sampling rate : 48.0 kHz<br>
Frame rate : 46.875 FPS (1024 SPF)<br>
Compression mode : Lossy<br>
Delay relative to video : -19 ms<br>
Stream size : 87.9 MiB (2%)<br>
Title : higher volume<br>
Language : English<br>
Default : Yes<br>
Forced : No<br>
<br>
Audio #2<br>
ID : 3<br>
Format : AAC LC<br>
Format/Info : Advanced Audio Codec Low Complexity<br>
Codec ID : A_AAC-2<br>
Duration : 54 min 50 s<br>
Bit rate : 128 kb/s<br>
Channel(s) : 2 channels<br>
Channel layout : L R<br>
Sampling rate : 48.0 kHz<br>
Frame rate : 46.875 FPS (1024 SPF)<br>
Compression mode : Lossy<br>
Delay relative to video : -19 ms<br>
Stream size : 50.2 MiB (1%)<br>
Title : original<br>
Language : English<br>
Default : No<br>
Forced : No</div>
</div><br>
Download:<br>
<div class="bbCodeBlock bbCodeVfcHH HiddenContent">
<div class="attribution type">Hidden Content:</div>
<blockquote>You must reply before you can see the hidden data contained here.</blockquote>
</div>
<div class="messageTextEndMarker">&nbsp;</div>
</blockquote>
</article>]]></description>
                <author><![CDATA[mirrorball]]></author>
                </item>

                
                <item>
                <title><![CDATA[【HD Live Performances】WEB-RiP - Avril Lavigne - Glastonbury 2024 Highlights (Interview + Complicated + Sk8er Boi) BBC2 IPTV 1080p]]></title>
                <link><![CDATA[https://sharemania.us/threads/avril-lavigne-glastonbury-2024-highlights-interview-complicated-sk8er-boi-bbc2-iptv-1080p.248509/]]></link>
                <description><![CDATA[<article>
<blockquote class="messageText SelectQuoteContainer ugc baseHtml">
Avril Lavigne - Glastonbury 2024 from the BBC2 Highlights including interview, Complicated and Sk8er Boi<br>
<br>
<a href="https://ibb.co/xGwC0qb" target="_blank" class="externalLink" rel="nofollow"><img src="https://i.ibb.co/xGwC0qb/av1.png" class="bbCodeImage LbImage" alt="[​IMG]" data-url="https://i.ibb.co/xGwC0qb/av1.png"></a> <a href="https://ibb.co/Sx7K060" target="_blank" class="externalLink" rel="nofollow"><img src="https://i.ibb.co/Sx7K060/av2.png" class="bbCodeImage LbImage" alt="[​IMG]" data-url="https://i.ibb.co/Sx7K060/av2.png"></a> <a href="https://ibb.co/C2XnqnT" target="_blank" class="externalLink" rel="nofollow"><img src="https://i.ibb.co/C2XnqnT/av3.png" class="bbCodeImage LbImage" alt="[​IMG]" data-url="https://i.ibb.co/C2XnqnT/av3.png"></a> <a href="https://ibb.co/MSw09WG" target="_blank" class="externalLink" rel="nofollow"><img src="https://i.ibb.co/MSw09WG/av4.png" class="bbCodeImage LbImage" alt="[​IMG]" data-url="https://i.ibb.co/MSw09WG/av4.png"></a><br>
<br>
Link:<br>
<div class="bbCodeBlock bbCodeVfcHH HiddenContent">
<div class="attribution type">Hidden Content:</div>
<blockquote>You must either reply or click 'Like' to see the hidden information contained here.</blockquote>
</div>
<div class="messageTextEndMarker">&nbsp;</div>
</blockquote>
</article>]]></description>
                <author><![CDATA[JohnBard]]></author>
                </item>

                
                <item>
                <title><![CDATA[【Apple Music】WEB-RiP - Chesca, Villano Antillano &amp; Corina Smith -  ACTIVA (1080p)]]></title>
                <link><![CDATA[https://sharemania.us/threads/chesca-villano-antillano-corina-smith-activa-1080p.248508/]]></link>
                <description><![CDATA[<article>
<blockquote class="messageText SelectQuoteContainer ugc baseHtml">
<img src="https://i.postimg.cc/jd8t1mdd/Chesca-Villano-Antillano-Corina-Smith-ACTIVA-mp4.jpg" class="bbCodeImage LbImage" alt="[​IMG]" data-url="https://i.postimg.cc/jd8t1mdd/Chesca-Villano-Antillano-Corina-Smith-ACTIVA-mp4.jpg" style=""><br>
<br>
<div class="bbCodeBlock bbCodeCode">
<div class="type">Code:</div>
<pre>General
Complete name                  : G:\Новая папка\Chesca, Villano Antillano &amp; Corina Smith -  ACTIVA.mp4
Format                         : MPEG-4
Format profile                 : Base Media
Codec ID                       : isom (isom/iso2/avc1/mp41)
File size                      : 317 MiB
Duration                       : 4 min 21 s
Overall bit rate               : 10.2 Mb/s
Frame rate                     : 23.976 FPS
Movie name                     : ACTIVA
Album                          : ALTER EGO
Album/Performer                : Chesca
Part/Position                  : 2
Part/Total                     : 2
Track name/Position            : 6
Track name/Total               : 25
Performer                      : Chesca, Villano Antillano &amp; Corina Smith
Genre                          : Latin
ContentType                    : Music Video
Recorded date                  : 2023-09-21 07:00:00 UTC
Writing application            : Lavf56.30.100
Copyright                      : ℗ 2022 Chesca Entertainment Ventures LLC, a Saban Music Group Joint Venture

Video
ID                             : 1
Format                         : AVC
Format/Info                    : Advanced Video Codec
Format profile                 : High@L4
Format settings                : CABAC / 4 Ref Frames
Format settings, CABAC         : Yes
Format settings, Reference fra : 4 frames
Format settings, Slice count   : 8 slices per frame
Codec ID                       : avc1
Codec ID/Info                  : Advanced Video Coding
Duration                       : 4 min 21 s
Bit rate                       : 9 894 kb/s
Width                          : 1 920 pixels
Height                         : 1 080 pixels
Display aspect ratio           : 16:9
Frame rate mode                : Constant
Frame rate                     : 23.976 (24000/1001) FPS
Color space                    : YUV
Chroma subsampling             : 4:2:0
Bit depth                      : 8 bits
Scan type                      : Progressive
Bits/(Pixel*Frame)             : 0.199
Stream size                    : 309 MiB (97%)
Color range                    : Limited
Color primaries                : BT.709
Transfer characteristics       : BT.709
Matrix coefficients            : BT.709
Codec configuration box        : avcC

Audio
ID                             : 2
Format                         : AAC LC
Format/Info                    : Advanced Audio Codec Low Complexity
Codec ID                       : mp4a-40-2
Duration                       : 4 min 21 s
Duration_LastFrame             : -18 ms
Bit rate mode                  : Constant
Bit rate                       : 265 kb/s
Channel(s)                     : 2 channels
Channel layout                 : L R
Sampling rate                  : 48.0 kHz
Frame rate                     : 46.875 FPS (1024 SPF)
Compression mode               : Lossy
Stream size                    : 8.10 MiB (3%)
Default                        : Yes
Alternate group                : 1

</pre>
</div>
<div class="bbCodeBlock bbCodeVfcHH HiddenContent">
<div class="attribution type">Hidden Content:</div>
<blockquote>You must either reply or click 'Like' to see the hidden information contained here.</blockquote>
</div>
<div class="messageTextEndMarker">&nbsp;</div>
</blockquote>
</article>]]></description>
                <author><![CDATA[vitalya3]]></author>
                </item>

                
                <item>
                <title><![CDATA[【Apple Music】WEB-RiP - Armin van Buuren &amp; Davina Michelle - Hold On (1080p)]]></title>
                <link><![CDATA[https://sharemania.us/threads/armin-van-buuren-davina-michelle-hold-on-1080p.248505/]]></link>
                <description><![CDATA[<article>
<blockquote class="messageText SelectQuoteContainer ugc baseHtml">
<img src="https://i.postimg.cc/v86rQMwN/Armin-van-Buuren-Davina-Michelle-Hold-On-mp4.jpg" class="bbCodeImage LbImage" alt="[​IMG]" data-url="https://i.postimg.cc/v86rQMwN/Armin-van-Buuren-Davina-Michelle-Hold-On-mp4.jpg" style=""><br>
<br>
<div class="bbCodeBlock bbCodeCode">
<div class="type">Code:</div>
<pre>General
Complete name                  : G:\Новая папка\Armin van Buuren &amp; Davina Michelle - Hold On.mp4
Format                         : MPEG-4
Format profile                 : Base Media
Codec ID                       : isom (isom/iso2/avc1/mp41)
File size                      : 249 MiB
Duration                       : 3 min 27 s
Overall bit rate               : 10.0 Mb/s
Frame rate                     : 25.000 FPS
Movie name                     : Hold On
Performer                      : Armin van Buuren &amp; Davina Michelle
Genre                          : Dance
ContentType                    : Music Video
Recorded date                  : 2021-09-10 07:00:00 UTC
Writing application            : Lavf56.30.100
Copyright                      : ℗ 2021 Armada Music B.V.

Video
ID                             : 1
Format                         : AVC
Format/Info                    : Advanced Video Codec
Format profile                 : High@L4
Format settings                : CABAC / 4 Ref Frames
Format settings, CABAC         : Yes
Format settings, Reference fra : 4 frames
Format settings, Slice count   : 8 slices per frame
Codec ID                       : avc1
Codec ID/Info                  : Advanced Video Coding
Duration                       : 3 min 27 s
Bit rate                       : 9 789 kb/s
Width                          : 1 920 pixels
Height                         : 1 080 pixels
Display aspect ratio           : 16:9
Frame rate mode                : Constant
Frame rate                     : 25.000 FPS
Color space                    : YUV
Chroma subsampling             : 4:2:0
Bit depth                      : 8 bits
Scan type                      : Progressive
Bits/(Pixel*Frame)             : 0.189
Stream size                    : 242 MiB (97%)
Color range                    : Limited
Color primaries                : BT.709
Transfer characteristics       : BT.709
Matrix coefficients            : BT.709
Codec configuration box        : avcC

Audio
ID                             : 2
Format                         : AAC LC
Format/Info                    : Advanced Audio Codec Low Complexity
Codec ID                       : mp4a-40-2
Duration                       : 3 min 27 s
Bit rate mode                  : Constant
Bit rate                       : 257 kb/s
Channel(s)                     : 2 channels
Channel layout                 : L R
Sampling rate                  : 48.0 kHz
Frame rate                     : 46.875 FPS (1024 SPF)
Compression mode               : Lossy
Stream size                    : 6.35 MiB (3%)
Default                        : Yes
Alternate group                : 1

</pre>
</div>
<div class="bbCodeBlock bbCodeVfcHH HiddenContent">
<div class="attribution type">Hidden Content:</div>
<blockquote>You must either reply or click 'Like' to see the hidden information contained here.</blockquote>
</div>
<div class="messageTextEndMarker">&nbsp;</div>
</blockquote>
</article>]]></description>
                <author><![CDATA[vitalya3]]></author>
                </item>

                
                <item>
                <title><![CDATA[【Requests】[REQ VID] - Deadly Women Season 5]]></title>
                <link><![CDATA[https://sharemania.us/threads/deadly-women-season-5.248510/]]></link>
                <description><![CDATA[<article>
<blockquote class="messageText SelectQuoteContainer ugc baseHtml">
Anyone with the complete season 5 of Deadly Women?
<div class="messageTextEndMarker">&nbsp;</div>
</blockquote>
</article>]]></description>
                <author><![CDATA[kenny25]]></author>
                </item>

                
                <item>
                <title><![CDATA[【Apple Music】WEB-RiP - Chesca, Pitbull &amp; Frankie Valli - Te Quiero Baby (I Love You Baby) (1080p)]]></title>
                <link><![CDATA[https://sharemania.us/threads/chesca-pitbull-frankie-valli-te-quiero-baby-i-love-you-baby-1080p.248506/]]></link>
                <description><![CDATA[<article>
<blockquote class="messageText SelectQuoteContainer ugc baseHtml">
<img src="https://i.postimg.cc/P5Gp28LX/Chesca-Pitbull-Frankie-Valli-Te-Quiero-Baby-I-Love-You-Baby-mp4.jpg" class="bbCodeImage LbImage" alt="[​IMG]" data-url="https://i.postimg.cc/P5Gp28LX/Chesca-Pitbull-Frankie-Valli-Te-Quiero-Baby-I-Love-You-Baby-mp4.jpg" style=""><br>
<br>
<div class="bbCodeBlock bbCodeCode">
<div class="type">Code:</div>
<pre>General
Complete name                  : G:\Новая папка\Chesca, Pitbull &amp; Frankie Valli - Te Quiero Baby (I Love You Baby).mp4
Format                         : MPEG-4
Format profile                 : Base Media
Codec ID                       : isom (isom/iso2/avc1/mp41)
File size                      : 243 MiB
Duration                       : 3 min 21 s
Overall bit rate               : 10.1 Mb/s
Frame rate                     : 23.976 FPS
Movie name                     : Te Quiero Baby (I Love You Baby)
Album                          : ALTER EGO
Album/Performer                : Chesca
Part/Position                  : 2
Part/Total                     : 2
Track name/Position            : 8
Track name/Total               : 25
Performer                      : Chesca, Pitbull &amp; Frankie Valli
Genre                          : Latin
ContentType                    : Music Video
Recorded date                  : 2023-09-21 07:00:00 UTC
Writing application            : Lavf56.30.100
Copyright                      : ℗ 2020 Chesca Entertainment Ventures LLC, a Saban Music Latin Joint Venture

Video
ID                             : 1
Format                         : AVC
Format/Info                    : Advanced Video Codec
Format profile                 : High@L4
Format settings                : CABAC / 4 Ref Frames
Format settings, CABAC         : Yes
Format settings, Reference fra : 4 frames
Format settings, Slice count   : 8 slices per frame
Codec ID                       : avc1
Codec ID/Info                  : Advanced Video Coding
Duration                       : 3 min 21 s
Bit rate                       : 9 847 kb/s
Width                          : 1 920 pixels
Height                         : 1 080 pixels
Display aspect ratio           : 16:9
Frame rate mode                : Constant
Frame rate                     : 23.976 (24000/1001) FPS
Color space                    : YUV
Chroma subsampling             : 4:2:0
Bit depth                      : 8 bits
Scan type                      : Progressive
Bits/(Pixel*Frame)             : 0.198
Stream size                    : 236 MiB (97%)
Color range                    : Limited
Color primaries                : BT.709
Transfer characteristics       : BT.709
Matrix coefficients            : BT.709
Codec configuration box        : avcC

Audio
ID                             : 2
Format                         : AAC LC
Format/Info                    : Advanced Audio Codec Low Complexity
Codec ID                       : mp4a-40-2
Duration                       : 3 min 21 s
Duration_LastFrame             : -17 ms
Bit rate mode                  : Constant
Bit rate                       : 257 kb/s
Channel(s)                     : 2 channels
Channel layout                 : L R
Sampling rate                  : 48.0 kHz
Frame rate                     : 46.875 FPS (1024 SPF)
Compression mode               : Lossy
Stream size                    : 6.18 MiB (3%)
Default                        : Yes
Alternate group                : 1

</pre>
</div>
<div class="bbCodeBlock bbCodeVfcHH HiddenContent">
<div class="attribution type">Hidden Content:</div>
<blockquote>You must either reply or click 'Like' to see the hidden information contained here.</blockquote>
</div>
<div class="messageTextEndMarker">&nbsp;</div>
</blockquote>
</article>]]></description>
                <author><![CDATA[vitalya3]]></author>
                </item>

                </channel></rss>